<svg width="38" height="41" viewBox="0 0 38 41" fill="none" xmlns="http://www.w3.org/2000/svg">
    <g filter="url(#filter0_d_873_4533)">
        <path d="M19 3L19.486 3.0015L19.963 3.0075L20.887 3.033L21.3355 3.0525L22.204 3.1035L23.0335 3.1725C30.211 3.8685 33.1315 6.789 33.8275 13.9665L33.8965 14.796L33.9475 15.6645C33.955 15.8115 33.9625 15.9615 33.967 16.113L33.9925 17.037L34 18L33.9925 18.963L33.967 19.887L33.9475 20.3355L33.8965 21.204L33.8275 22.0335C33.1315 29.211 30.211 32.1315 23.0335 32.8275L22.204 32.8965L21.3355 32.9475C21.1885 32.955 21.0385 32.9625 20.887 32.967L19.963 32.9925L19 33L18.037 32.9925L17.113 32.967L16.6645 32.9475L15.796 32.8965L14.9665 32.8275C7.789 32.1315 4.8685 29.211 4.1725 22.0335L4.1035 21.204L4.0525 20.3355C4.0452 20.186 4.0387 20.0365 4.033 19.887L4.0075 18.963C4.003 18.648 4 18.327 4 18L4.0015 17.514L4.0075 17.037L4.033 16.113L4.0525 15.6645L4.1035 14.796L4.1725 13.9665C4.8685 6.789 7.789 3.8685 14.9665 3.1725L15.796 3.1035L16.6645 3.0525C16.8115 3.045 16.9615 3.0375 17.113 3.033L18.037 3.0075C18.352 3.003 18.673 3 19 3Z" fill="#2A2E2F"/>
    </g>
    <path d="M19 3L19.486 3.0015L19.963 3.0075L20.887 3.033L21.3355 3.0525L22.204 3.1035L23.0335 3.1725C30.211 3.8685 33.1315 6.789 33.8275 13.9665L33.8965 14.796L33.9475 15.6645C33.955 15.8115 33.9625 15.9615 33.967 16.113L33.9925 17.037L34 18L33.9925 18.963L33.967 19.887L33.9475 20.3355L33.8965 21.204L33.8275 22.0335C33.1315 29.211 30.211 32.1315 23.0335 32.8275L22.204 32.8965L21.3355 32.9475C21.1885 32.955 21.0385 32.9625 20.887 32.967L19.963 32.9925L19 33L18.037 32.9925L17.113 32.967L16.6645 32.9475L15.796 32.8965L14.9665 32.8275C7.789 32.1315 4.8685 29.211 4.1725 22.0335L4.1035 21.204L4.0525 20.3355C4.0452 20.186 4.0387 20.0365 4.033 19.887L4.0075 18.963C4.003 18.648 4 18.327 4 18L4.0015 17.514L4.0075 17.037L4.033 16.113L4.0525 15.6645L4.1035 14.796L4.1725 13.9665C4.8685 6.789 7.789 3.8685 14.9665 3.1725L15.796 3.1035L16.6645 3.0525C16.8115 3.045 16.9615 3.0375 17.113 3.033L18.037 3.0075C18.352 3.003 18.673 3 19 3ZM19 12C18.6022 12 18.2206 12.158 17.9393 12.4393C17.658 12.7206 17.5 13.1022 17.5 13.5V16.5H14.5L14.3245 16.5105C13.9449 16.5557 13.5968 16.7441 13.3514 17.0373C13.106 17.3304 12.9818 17.7062 13.0042 18.0879C13.0266 18.4696 13.1939 18.8283 13.4719 19.0907C13.75 19.3532 14.1177 19.4996 14.5 19.5H17.5V22.5L17.5105 22.6755C17.5557 23.0551 17.7441 23.4032 18.0373 23.6486C18.3304 23.894 18.7062 24.0182 19.0879 23.9958C19.4696 23.9734 19.8283 23.8061 20.0907 23.5281C20.3532 23.25 20.4996 22.8823 20.5 22.5V19.5H23.5L23.6755 19.4895C24.0551 19.4443 24.4032 19.2559 24.6486 18.9627C24.894 18.6696 25.0182 18.2938 24.9958 17.9121C24.9734 17.5304 24.8061 17.1717 24.5281 16.9093C24.25 16.6468 23.8823 16.5004 23.5 16.5H20.5V13.5L20.4895 13.3245C20.4465 12.9596 20.2711 12.6232 19.9966 12.3791C19.722 12.1349 19.3674 12 19 12Z" fill="#F1F2F2"/>
    <defs>
        <filter id="filter0_d_873_4533" x="0" y="3" width="38" height="38" filterUnits="userSpaceOnUse" color-interpolation-filters="sRGB">
            <feFlood flood-opacity="0" result="BackgroundImageFix"/>
            <feColorMatrix in="SourceAlpha" type="matrix" values="0 0 0 0 0 0 0 0 0 0 0 0 0 0 0 0 0 0 127 0" result="hardAlpha"/>
            <feOffset dy="4"/>
            <feGaussianBlur stdDeviation="2"/>
            <feComposite in2="hardAlpha" operator="out"/>
            <feColorMatrix type="matrix" values="0 0 0 0 0 0 0 0 0 0 0 0 0 0 0 0 0 0 0.2 0"/>
            <feBlend mode="normal" in2="BackgroundImageFix" result="effect1_dropShadow_873_4533"/>
            <feBlend mode="normal" in="SourceGraphic" in2="effect1_dropShadow_873_4533" result="shape"/>
        </filter>
    </defs>
</svg>
