<svg width="36" height="36" viewBox="0 0 36 36" fill="none" xmlns="http://www.w3.org/2000/svg">
    <path d="M15.4666 4.23102C18.2592 3.71728 21.1423 4.06504 23.7328 5.2277C26.3233 6.39037 28.4992 8.31368 29.9715 10.7416C31.4436 13.1693 32.1425 15.9873 31.9759 18.8216C31.9304 19.5934 31.2683 20.1822 30.4965 20.1368C29.7248 20.0915 29.1361 19.4292 29.1812 18.6576C29.3145 16.3899 28.7553 14.1345 27.5775 12.1921C26.3997 10.2499 24.6581 8.71169 22.5857 7.7816C20.5136 6.85174 18.2076 6.57367 15.9738 6.98453C13.7398 7.39553 11.6826 8.47584 10.077 10.0826C8.47127 11.6894 7.39235 13.7477 6.98292 15.982C6.57368 18.2161 6.85395 20.5222 7.78549 22.5937C8.7171 24.6651 10.256 26.4048 12.1989 27.5812C14.1421 28.7576 16.3983 29.3157 18.6659 29.1808C19.4375 29.1352 20.1007 29.723 20.1466 30.4946C20.1924 31.2664 19.6031 31.9294 18.8313 31.9753C15.9971 32.1439 13.1785 31.4468 10.7496 29.9765C8.32077 28.506 6.39606 26.3315 5.2315 23.7421C4.06696 21.1525 3.71754 18.269 4.22932 15.4761C4.74118 12.6834 6.09024 10.1126 8.09721 8.10426C10.1042 6.09591 12.6741 4.74481 15.4666 4.23102Z" fill="#FAFBFB"/>
    <path d="M33 27C33.8284 27 34.5 27.6716 34.5 28.5C34.5 29.3284 33.8284 30 33 30H24C23.1716 30 22.5 29.3284 22.5 28.5C22.5 27.6716 23.1716 27 24 27H33Z" fill="#FAFBFB"/>
    <path d="M27 33V24C27 23.1716 27.6716 22.5 28.5 22.5C29.3284 22.5 30 23.1716 30 24V33C30 33.8284 29.3284 34.5 28.5 34.5C27.6716 34.5 27 33.8284 27 33Z" fill="#FAFBFB"/>
    <path d="M13.5146 13.5C14.3431 13.5 15.0146 14.1716 15.0146 15C15.0146 15.8284 14.3431 16.5 13.5146 16.5H13.5C12.6716 16.5 12 15.8284 12 15C12 14.1716 12.6716 13.5 13.5 13.5H13.5146Z" fill="#FAFBFB"/>
    <path d="M22.5146 13.5C23.3431 13.5 24.0146 14.1716 24.0146 15C24.0146 15.8284 23.3431 16.5 22.5146 16.5H22.5C21.6716 16.5 21 15.8284 21 15C21 14.1716 21.6716 13.5 22.5 13.5H22.5146Z" fill="#FAFBFB"/>
    <path d="M20.7041 21.4248C21.2979 20.8472 22.2475 20.8603 22.8252 21.4541C23.4027 22.048 23.3897 22.9976 22.7959 23.5752C21.5204 24.8157 19.7887 25.5 18 25.5C16.2112 25.5 14.4795 24.8157 13.2041 23.5752C12.6103 22.9976 12.5972 22.048 13.1748 21.4541C13.7524 20.8603 14.702 20.8472 15.2959 21.4248C15.9944 22.1043 16.9687 22.5 18 22.5C19.0312 22.5 20.0055 22.1043 20.7041 21.4248Z" fill="#FAFBFB"/>
</svg>
