<svg width="46" height="46" viewBox="0 0 46 46" fill="none" xmlns="http://www.w3.org/2000/svg">
    <path d="M33.1372 18.8362C28.1691 21.4528 26.7092 17.964 26.6003 15.8926L24.3122 16.0888C19.6058 21.6491 13.9509 23.2517 11.2712 26.13C2.80584 35.2226 10.8135 45.1902 19.6058 42.222C27.7442 39.4746 33.6601 27.471 35.1309 21.6491C34.6951 21.213 33.6863 20.0399 33.1372 18.8362Z" fill="white"/>
    <path d="M33.7907 16.6448C28.692 20.2754 28.0383 17.0046 28.0383 13.9955C22.9395 15.0749 22.4787 14.2048 23.9527 12.1312C26.2079 8.95859 29.313 7.19239 33.1372 8.30444C33.1372 7.7157 32.9214 6.41395 32.0585 5.9168C31.274 5.36077 32.0585 2.80959 33.7907 3.16938C36.2421 3.65999 36.5362 6.63636 35.8499 9.77627C39.9681 12.6218 37.8763 19.7847 36.9938 20.2754C35.8801 20.8945 35.3269 19.1306 33.7907 16.6448Z" fill="white"/>
</svg>
