<svg width="48" height="48" viewBox="0 0 48 48" fill="none" xmlns="http://www.w3.org/2000/svg">
    <path d="M39.981 23.2129C39.8907 21.3806 39.4853 19.5754 38.7817 17.877C37.9777 15.9359 36.8006 14.1712 35.3149 12.6855C33.8293 11.1999 32.0646 10.0228 30.1235 9.21875C28.4251 8.51523 26.6198 8.10978 24.7876 8.01953L24.0005 8C21.8993 8 19.8187 8.41467 17.8774 9.21875C15.9364 10.0228 14.1717 11.1999 12.686 12.6855C11.2004 14.1712 10.0233 15.9359 9.21924 17.877C8.41516 19.8182 8.00049 21.8988 8.00049 24L8.02002 24.7871C8.11026 26.6194 8.51572 28.4246 9.21924 30.123C10.0233 32.0641 11.2004 33.8288 12.686 35.3145C14.1717 36.8001 15.9364 37.9772 17.8774 38.7812C19.8187 39.5853 21.8993 40 24.0005 40L24.7876 39.9805C26.6198 39.8902 28.4251 39.4848 30.1235 38.7812C32.0646 37.9772 33.8293 36.8001 35.3149 35.3145C36.8006 33.8288 37.9777 32.0641 38.7817 30.123C39.5858 28.1818 40.0005 26.1012 40.0005 24L39.981 23.2129ZM43.9771 24.9844C43.8642 27.2745 43.3583 29.5314 42.479 31.6543C41.4739 34.0807 40.0002 36.2855 38.1431 38.1426C36.2859 39.9997 34.0812 41.4734 31.6548 42.4785C29.5319 43.3579 27.275 43.8637 24.9849 43.9766L24.0005 44C21.3741 44 18.7727 43.4836 16.3462 42.4785C13.9198 41.4734 11.715 39.9997 9.85791 38.1426C8.00079 36.2855 6.52706 34.0807 5.52197 31.6543C4.64263 29.5314 4.13677 27.2745 4.02393 24.9844L4.00049 24C4.00049 21.3736 4.51688 18.7722 5.52197 16.3457C6.52706 13.9193 8.00079 11.7145 9.85791 9.85742C11.715 8.0003 13.9198 6.52658 16.3462 5.52148C18.7727 4.51639 21.3741 4 24.0005 4L24.9849 4.02344C27.275 4.13629 29.5319 4.64214 31.6548 5.52148C34.0812 6.52658 36.2859 8.0003 38.1431 9.85742C40.0002 11.7145 41.4739 13.9193 42.479 16.3457C43.4841 18.7722 44.0005 21.3736 44.0005 24L43.9771 24.9844Z" fill="white"/>
</svg>
