<svg width="30" height="30" viewBox="0 0 30 30" fill="none" xmlns="http://www.w3.org/2000/svg">
<path d="M26.9854 14.4097C26.9177 13.0355 26.6136 11.6815 26.0859 10.4077C25.4829 8.95192 24.6001 7.62839 23.4858 6.51416C22.3716 5.39993 21.0481 4.51712 19.5923 3.91406C18.3185 3.38642 16.9645 3.08233 15.5903 3.01465L15 3C13.4241 3 11.8636 3.31101 10.4077 3.91406C8.95192 4.51712 7.62839 5.39993 6.51416 6.51416C5.39993 7.62839 4.51712 8.95192 3.91406 10.4077C3.31101 11.8636 3 13.4241 3 15L3.01465 15.5903C3.08233 16.9645 3.38642 18.3185 3.91406 19.5923C4.51712 21.0481 5.39993 22.3716 6.51416 23.4858C7.62839 24.6001 8.95192 25.4829 10.4077 26.0859C11.8636 26.689 13.4241 27 15 27L15.5903 26.9854C16.9645 26.9177 18.3185 26.6136 19.5923 26.0859C21.0481 25.4829 22.3716 24.6001 23.4858 23.4858C24.6001 22.3716 25.4829 21.0481 26.0859 19.5923C26.689 18.1364 27 16.5759 27 15L26.9854 14.4097ZM29.9824 15.7383C29.8978 17.4559 29.5184 19.1485 28.8589 20.7407C28.1051 22.5605 26.9998 24.2141 25.6069 25.6069C24.2141 26.9998 22.5605 28.1051 20.7407 28.8589C19.1485 29.5184 17.4559 29.8978 15.7383 29.9824L15 30C13.0302 30 11.0792 29.6127 9.25928 28.8589C7.43946 28.1051 5.7859 26.9998 4.39307 25.6069C3.00023 24.2141 1.89493 22.5605 1.14111 20.7407C0.481608 19.1485 0.102215 17.4559 0.0175781 15.7383L0 15C-2.64177e-08 13.0302 0.387293 11.0792 1.14111 9.25928C1.89493 7.43946 3.00023 5.78591 4.39307 4.39307C5.78591 3.00023 7.43946 1.89493 9.25928 1.14111C11.0792 0.387293 13.0302 0 15 0L15.7383 0.0175781C17.4559 0.102215 19.1485 0.481608 20.7407 1.14111C22.5605 1.89493 24.2141 3.00023 25.6069 4.39307C26.9998 5.7859 28.1051 7.43945 28.8589 9.25928C29.6127 11.0792 30 13.0302 30 15L29.9824 15.7383Z" fill="white"/>
</svg>
