<svg width="64" height="64" viewBox="0 0 64 64" fill="none" xmlns="http://www.w3.org/2000/svg">
<path d="M32 0C49.6731 0 64 14.3269 64 32C64 49.6731 49.6731 64 32 64C14.3269 64 0 49.6731 0 32C0 14.3269 14.3269 0 32 0ZM32 4C16.536 4 4 16.536 4 32C4 47.464 16.536 60 32 60C47.464 60 60 47.464 60 32C60 16.536 47.464 4 32 4Z" fill="url(#paint0_linear_2001_256)"/>
<circle cx="32" cy="32" r="24" fill="#F6FCFE"/>
<circle opacity="0.42" cx="32" cy="32" r="28" fill="white"/>
<defs>
<linearGradient id="paint0_linear_2001_256" x1="4.76837e-07" y1="-3.63636" x2="65.438" y2="60.3475" gradientUnits="userSpaceOnUse">
<stop offset="0.142594" stop-color="#FB46CD"/>
<stop offset="0.5" stop-color="#6C75FF"/>
<stop offset="0.855478" stop-color="#0DBFFF"/>
</linearGradient>
</defs>
</svg>
