<svg width="20" height="20" viewBox="0 0 20 20" fill="none" xmlns="http://www.w3.org/2000/svg">
<path d="M10 0L10.324 0.000999928L10.642 0.00500011L11.258 0.0220001L11.557 0.0350001L12.136 0.069L12.689 0.115C17.474 0.579 19.421 2.526 19.885 7.311L19.931 7.864L19.965 8.443C19.97 8.541 19.975 8.641 19.978 8.742L19.995 9.358L20 10L19.995 10.642L19.978 11.258L19.965 11.557L19.931 12.136L19.885 12.689C19.421 17.474 17.474 19.421 12.689 19.885L12.136 19.931L11.557 19.965C11.459 19.97 11.359 19.975 11.258 19.978L10.642 19.995L10 20L9.358 19.995L8.742 19.978L8.443 19.965L7.864 19.931L7.311 19.885C2.526 19.421 0.579 17.474 0.115 12.689L0.069 12.136L0.0350001 11.557C0.0301352 11.4574 0.0258018 11.3577 0.0220001 11.258L0.00500011 10.642C0.00200011 10.432 0 10.218 0 10L0.000999928 9.676L0.00500011 9.358L0.0220001 8.742L0.0350001 8.443L0.069 7.864L0.115 7.311C0.579 2.526 2.526 0.579 7.311 0.115L7.864 0.069L8.443 0.0350001C8.541 0.0300001 8.641 0.0250001 8.742 0.0220001L9.358 0.00500011C9.568 0.00200011 9.782 0 10 0ZM8.511 7.14C8.30148 7.01528 8.05361 6.9714 7.81401 7.01663C7.57441 7.06186 7.35959 7.19307 7.20995 7.38558C7.06031 7.5781 6.98617 7.81865 7.00146 8.062C7.01675 8.30536 7.12043 8.53473 7.293 8.707L8.585 10L7.293 11.293L7.21 11.387C7.05459 11.588 6.98151 11.8406 7.0056 12.0935C7.02969 12.3464 7.14916 12.5807 7.33972 12.7488C7.53029 12.9168 7.77767 13.006 8.03162 12.9982C8.28557 12.9905 8.52704 12.8863 8.707 12.707L10 11.415L11.293 12.707L11.387 12.79C11.588 12.9454 11.8406 13.0185 12.0935 12.9944C12.3464 12.9703 12.5807 12.8508 12.7488 12.6603C12.9168 12.4697 13.006 12.2223 12.9982 11.9684C12.9905 11.7144 12.8863 11.473 12.707 11.293L11.415 10L12.707 8.707L12.79 8.613C12.9454 8.41201 13.0185 8.1594 12.9944 7.90647C12.9703 7.65355 12.8508 7.41928 12.6603 7.25125C12.4697 7.08321 12.2223 6.99402 11.9684 7.00177C11.7144 7.00953 11.473 7.11365 11.293 7.293L10 8.585L8.707 7.293L8.613 7.21L8.511 7.14Z" fill="#F1F2F2"/>
</svg>
