<svg width="18" height="18" viewBox="0 0 18 18" fill="none" xmlns="http://www.w3.org/2000/svg">
    <path d="M15 9C15 7.4087 14.3681 5.8823 13.2429 4.75708C12.1177 3.63186 10.5913 3 9 3C7.4087 3 5.8823 3.63186 4.75708 4.75708C3.63186 5.8823 3 7.4087 3 9C3 9.78793 3.1555 10.5682 3.45703 11.2961C3.75856 12.024 4.19997 12.6858 4.75708 13.2429C5.31419 13.8 5.97596 14.2414 6.70386 14.543C7.43181 14.8445 8.21207 15 9 15L9.29517 14.9927C9.98226 14.9588 10.6592 14.8068 11.2961 14.543C12.024 14.2414 12.6858 13.8 13.2429 13.2429C13.8 12.6858 14.2414 12.024 14.543 11.2961C14.8445 10.5682 15 9.78793 15 9ZM16.5 9C16.5 9.98491 16.3064 10.9604 15.9294 11.8704C15.5525 12.7803 14.9999 13.607 14.3035 14.3035C13.607 14.9999 12.7803 15.5525 11.8704 15.9294C11.0743 16.2592 10.228 16.4489 9.36914 16.4912L9 16.5C8.01509 16.5 7.03958 16.3064 6.12964 15.9294C5.21973 15.5525 4.39295 14.9999 3.69653 14.3035C3.00011 13.607 2.44747 12.7803 2.07056 11.8704C1.69365 10.9604 1.5 9.98491 1.5 9C1.5 7.01088 2.29001 5.10306 3.69653 3.69653C5.10306 2.29001 7.01088 1.5 9 1.5C10.9891 1.5 12.8969 2.29001 14.3035 3.69653C15.71 5.10306 16.5 7.01088 16.5 9Z" fill="#2A2E2F"/>
    <path d="M11.25 9.75C11.6642 9.75 12 10.0858 12 10.5C12 11.2956 11.6837 12.0585 11.1211 12.6211C10.5585 13.1837 9.79565 13.5 9 13.5C8.20435 13.5 7.44152 13.1837 6.87891 12.6211C6.3163 12.0585 6 11.2956 6 10.5C6 10.0858 6.33579 9.75 6.75 9.75H11.25ZM7.70288 11.25C7.76778 11.3623 7.84618 11.4673 7.93945 11.5605C8.22076 11.8419 8.60217 12 9 12C9.39783 12 9.77924 11.8419 10.0605 11.5605C10.1538 11.4673 10.2322 11.3623 10.2971 11.25H7.70288Z" fill="#2A2E2F"/>
    <path d="M6.07909 5.66454C6.26433 5.29406 6.71496 5.14385 7.08544 5.32909L11.5854 7.57909C11.9559 7.76433 12.1061 8.21496 11.9209 8.58544C11.7356 8.95592 11.285 9.10613 10.9145 8.92089L6.41454 6.67089C6.04406 6.48565 5.89385 6.03502 6.07909 5.66454Z" fill="#2A2E2F"/>
    <path d="M10.9145 5.32909C11.285 5.14385 11.7356 5.29406 11.9209 5.66454C12.1061 6.03502 11.9559 6.48565 11.5854 6.67089L7.08544 8.92089C6.71496 9.10613 6.26433 8.95592 6.07909 8.58544C5.89385 8.21496 6.04406 7.76433 6.41454 7.57909L10.9145 5.32909Z" fill="#2A2E2F"/>
</svg>
