<svg width="84" height="28" viewBox="0 0 84 28" fill="none" xmlns="http://www.w3.org/2000/svg">
<path opacity="0.36" d="M2 12C2 5.92487 6.92487 1 13 1H73C79.0751 1 84 5.92487 84 12C84 18.0751 79.0751 23 73 23H13C6.92487 23 2 18.0751 2 12Z" fill="#F1F2F2"/>
<path d="M33.432 16.132C33.168 16.132 32.984 16.08 32.88 15.976C32.776 15.864 32.724 15.672 32.724 15.4V8.44C32.724 8.176 32.776 7.992 32.88 7.888C32.984 7.784 33.172 7.732 33.444 7.732C33.708 7.732 33.892 7.788 33.996 7.9C34.1 8.004 34.152 8.192 34.152 8.464V15.412C34.152 15.676 34.1 15.864 33.996 15.976C33.892 16.08 33.704 16.132 33.432 16.132ZM31.584 10.864C31.4 11.032 31.236 11.116 31.092 11.116C30.948 11.108 30.788 11.008 30.612 10.816C30.444 10.632 30.364 10.46 30.372 10.3C30.388 10.14 30.5 9.968 30.708 9.784L32.76 7.972C32.944 7.812 33.108 7.74 33.252 7.756C33.404 7.764 33.564 7.86 33.732 8.044C33.908 8.228 33.988 8.4 33.972 8.56C33.956 8.72 33.84 8.892 33.624 9.076L31.584 10.864ZM37.3283 16.192C37.1203 16.192 36.9003 16.168 36.6683 16.12C36.4363 16.08 36.2123 16.02 35.9963 15.94C35.7803 15.852 35.5923 15.752 35.4323 15.64C35.2803 15.52 35.1843 15.388 35.1443 15.244C35.1123 15.164 35.1003 15.088 35.1083 15.016C35.1163 14.936 35.1403 14.856 35.1803 14.776C35.2203 14.688 35.2803 14.6 35.3603 14.512C35.4323 14.424 35.5043 14.376 35.5763 14.368C35.6563 14.352 35.7563 14.376 35.8763 14.44C35.9803 14.48 36.0923 14.532 36.2123 14.596C36.3403 14.66 36.4683 14.724 36.5963 14.788C36.7323 14.852 36.8683 14.904 37.0043 14.944C37.1483 14.984 37.2883 15.004 37.4243 15.004C37.7203 15.004 37.9563 14.956 38.1323 14.86C38.3083 14.756 38.3963 14.612 38.3963 14.428C38.3963 14.324 38.3683 14.232 38.3123 14.152C38.2563 14.072 38.1803 14.008 38.0843 13.96C37.9963 13.904 37.8883 13.856 37.7603 13.816C37.6403 13.768 37.5083 13.728 37.3643 13.696C37.2283 13.656 37.0843 13.612 36.9323 13.564C36.7323 13.508 36.5323 13.44 36.3323 13.36C36.1323 13.28 35.9523 13.176 35.7923 13.048C35.6403 12.92 35.5163 12.76 35.4203 12.568C35.3243 12.376 35.2763 12.136 35.2763 11.848C35.2763 11.488 35.3603 11.184 35.5283 10.936C35.7043 10.68 35.9563 10.484 36.2843 10.348C36.6123 10.212 37.0083 10.144 37.4723 10.144C37.6323 10.144 37.7843 10.156 37.9283 10.18C38.0803 10.204 38.2243 10.24 38.3603 10.288C38.5043 10.328 38.6403 10.38 38.7683 10.444C38.9043 10.508 39.0323 10.58 39.1523 10.66C39.3523 10.772 39.4563 10.904 39.4643 11.056C39.4723 11.2 39.4163 11.356 39.2963 11.524C39.2083 11.636 39.1203 11.716 39.0323 11.764C38.9443 11.804 38.8523 11.804 38.7563 11.764C38.6283 11.7 38.4883 11.632 38.3363 11.56C38.1923 11.48 38.0403 11.412 37.8803 11.356C37.7283 11.3 37.5683 11.272 37.4003 11.272C37.2403 11.272 37.0963 11.296 36.9683 11.344C36.8403 11.392 36.7443 11.46 36.6803 11.548C36.6163 11.636 36.5843 11.74 36.5843 11.86C36.5843 11.972 36.6163 12.064 36.6803 12.136C36.7443 12.208 36.8283 12.268 36.9323 12.316C37.0363 12.364 37.1603 12.408 37.3043 12.448C37.4483 12.48 37.6003 12.512 37.7603 12.544C37.9843 12.592 38.2123 12.652 38.4443 12.724C38.6763 12.796 38.8883 12.896 39.0803 13.024C39.2803 13.152 39.4403 13.324 39.5603 13.54C39.6803 13.748 39.7403 14.02 39.7403 14.356C39.7403 14.94 39.5243 15.392 39.0923 15.712C38.6683 16.032 38.0803 16.192 37.3283 16.192ZM43.5127 16.12C43.1207 16.12 42.7847 16.08 42.5047 16C42.2247 15.92 41.9967 15.796 41.8207 15.628C41.6447 15.46 41.5127 15.244 41.4247 14.98C41.3447 14.708 41.3047 14.388 41.3047 14.02V8.932C41.3047 8.788 41.3167 8.664 41.3407 8.56C41.3727 8.456 41.4367 8.376 41.5327 8.32C41.6367 8.256 41.7967 8.224 42.0127 8.224C42.2367 8.224 42.3967 8.256 42.4927 8.32C42.5967 8.384 42.6607 8.472 42.6847 8.584C42.7167 8.688 42.7327 8.804 42.7327 8.932V13.972C42.7327 14.14 42.7447 14.276 42.7687 14.38C42.8007 14.484 42.8447 14.564 42.9007 14.62C42.9647 14.668 43.0447 14.704 43.1407 14.728C43.2447 14.744 43.3687 14.752 43.5127 14.752C43.6647 14.752 43.7927 14.764 43.8967 14.788C44.0087 14.812 44.0927 14.872 44.1487 14.968C44.2047 15.056 44.2327 15.204 44.2327 15.412C44.2327 15.636 44.1967 15.8 44.1247 15.904C44.0607 16 43.9727 16.06 43.8607 16.084C43.7567 16.108 43.6407 16.12 43.5127 16.12ZM40.8127 10.324L42.0487 10.336L43.7047 10.288C43.8407 10.288 43.9607 10.304 44.0647 10.336C44.1767 10.36 44.2647 10.424 44.3287 10.528C44.3927 10.624 44.4247 10.784 44.4247 11.008C44.4247 11.216 44.3927 11.372 44.3287 11.476C44.2647 11.58 44.1807 11.648 44.0767 11.68C43.9727 11.704 43.8527 11.716 43.7167 11.716L42.1087 11.692L40.7767 11.704C40.5767 11.696 40.4367 11.64 40.3567 11.536C40.2847 11.424 40.2487 11.244 40.2487 10.996C40.2487 10.764 40.2927 10.596 40.3807 10.492C40.4767 10.38 40.6207 10.324 40.8127 10.324ZM49.0879 16.108C48.8639 16.108 48.6999 16.076 48.5959 16.012C48.4919 15.948 48.4279 15.86 48.4039 15.748C48.3799 15.628 48.3679 15.504 48.3679 15.376V8.452C48.3679 8.324 48.3799 8.208 48.4039 8.104C48.4359 7.992 48.5039 7.904 48.6079 7.84C48.7119 7.768 48.8759 7.732 49.0999 7.732H51.6439C51.9959 7.732 52.3399 7.792 52.6759 7.912C53.0119 8.032 53.3119 8.212 53.5759 8.452C53.8479 8.692 54.0599 8.988 54.2119 9.34C54.3719 9.692 54.4519 10.104 54.4519 10.576C54.4519 11.04 54.3719 11.448 54.2119 11.8C54.0599 12.144 53.8479 12.436 53.5759 12.676C53.3039 12.916 52.9999 13.096 52.6639 13.216C52.3359 13.336 51.9919 13.396 51.6319 13.396H49.8199V15.388C49.8199 15.516 49.8039 15.636 49.7719 15.748C49.7479 15.86 49.6839 15.948 49.5799 16.012C49.4839 16.076 49.3199 16.108 49.0879 16.108ZM49.8199 11.932H51.6439C51.8919 11.932 52.1159 11.884 52.3159 11.788C52.5239 11.684 52.6919 11.532 52.8199 11.332C52.9479 11.124 53.0119 10.864 53.0119 10.552C53.0119 10.272 52.9519 10.032 52.8319 9.832C52.7199 9.624 52.5599 9.464 52.3519 9.352C52.1519 9.24 51.9119 9.184 51.6319 9.184H49.8199V11.932ZM57.5435 16.12C57.2475 16.12 56.9835 16.1 56.7515 16.06C56.5275 16.02 56.3315 15.952 56.1635 15.856C56.0035 15.76 55.8715 15.632 55.7675 15.472C55.6635 15.304 55.5835 15.1 55.5275 14.86C55.4795 14.62 55.4555 14.332 55.4555 13.996V8.212C55.4555 8.076 55.4675 7.956 55.4915 7.852C55.5235 7.74 55.5875 7.652 55.6835 7.588C55.7875 7.516 55.9515 7.48 56.1755 7.48C56.3995 7.48 56.5595 7.512 56.6555 7.576C56.7595 7.64 56.8235 7.728 56.8475 7.84C56.8795 7.944 56.8955 8.064 56.8955 8.2V13.936C56.8955 14.088 56.9035 14.216 56.9195 14.32C56.9435 14.416 56.9795 14.496 57.0275 14.56C57.0835 14.616 57.1515 14.656 57.2315 14.68C57.3195 14.704 57.4235 14.716 57.5435 14.716C57.6475 14.716 57.7395 14.728 57.8195 14.752C57.9075 14.776 57.9755 14.836 58.0235 14.932C58.0795 15.028 58.1075 15.184 58.1075 15.4C58.1075 15.624 58.0795 15.788 58.0235 15.892C57.9755 15.996 57.9075 16.06 57.8195 16.084C57.7315 16.108 57.6395 16.12 57.5435 16.12ZM63.8917 16.096C63.6597 16.096 63.4877 16.052 63.3757 15.964C63.2637 15.876 63.2077 15.756 63.2077 15.604L63.2917 15.208C63.2277 15.312 63.1197 15.436 62.9677 15.58C62.8157 15.716 62.6157 15.84 62.3677 15.952C62.1197 16.056 61.8197 16.108 61.4677 16.108C61.0917 16.108 60.7357 16.032 60.3997 15.88C60.0717 15.72 59.7797 15.504 59.5237 15.232C59.2757 14.952 59.0757 14.636 58.9237 14.284C58.7797 13.924 58.7077 13.54 58.7077 13.132C58.7077 12.74 58.7797 12.372 58.9237 12.028C59.0757 11.676 59.2797 11.364 59.5357 11.092C59.7917 10.82 60.0837 10.608 60.4117 10.456C60.7477 10.296 61.0997 10.216 61.4677 10.216C61.7957 10.216 62.0717 10.26 62.2957 10.348C62.5277 10.436 62.7237 10.548 62.8837 10.684C63.0437 10.812 63.1757 10.948 63.2797 11.092L63.2077 10.744C63.2077 10.568 63.2637 10.436 63.3757 10.348C63.4877 10.252 63.6637 10.204 63.9037 10.204C64.1277 10.204 64.2877 10.24 64.3837 10.312C64.4797 10.376 64.5397 10.468 64.5637 10.588C64.5877 10.7 64.5997 10.828 64.5997 10.972V15.364C64.5997 15.5 64.5877 15.624 64.5637 15.736C64.5397 15.848 64.4757 15.936 64.3717 16C64.2757 16.064 64.1157 16.096 63.8917 16.096ZM61.6837 14.704C61.9557 14.704 62.1997 14.636 62.4157 14.5C62.6317 14.364 62.8037 14.18 62.9317 13.948C63.0677 13.708 63.1357 13.444 63.1357 13.156C63.1357 12.844 63.0677 12.572 62.9317 12.34C62.7957 12.108 62.6157 11.928 62.3917 11.8C62.1757 11.664 61.9317 11.596 61.6597 11.596C61.3637 11.596 61.0997 11.668 60.8677 11.812C60.6357 11.948 60.4517 12.136 60.3157 12.376C60.1877 12.608 60.1237 12.872 60.1237 13.168C60.1237 13.456 60.1917 13.716 60.3277 13.948C60.4637 14.18 60.6477 14.364 60.8797 14.5C61.1197 14.636 61.3877 14.704 61.6837 14.704ZM68.6597 16.144C68.2757 16.144 67.8997 16.08 67.5317 15.952C67.1717 15.816 66.8437 15.62 66.5477 15.364C66.2597 15.108 66.0277 14.796 65.8517 14.428C65.6837 14.052 65.5997 13.628 65.5997 13.156C65.5997 12.684 65.6837 12.264 65.8517 11.896C66.0277 11.528 66.2597 11.216 66.5477 10.96C66.8357 10.704 67.1597 10.508 67.5197 10.372C67.8797 10.236 68.2517 10.168 68.6357 10.168C68.9157 10.168 69.1797 10.208 69.4277 10.288C69.6837 10.368 69.9037 10.464 70.0877 10.576C70.2717 10.688 70.4037 10.8 70.4837 10.912C70.5877 11.008 70.6757 11.1 70.7477 11.188C70.8197 11.276 70.8437 11.384 70.8197 11.512C70.7957 11.592 70.7597 11.668 70.7117 11.74C70.6637 11.804 70.6037 11.872 70.5317 11.944C70.3397 12.16 70.1517 12.24 69.9677 12.184C69.8637 12.128 69.7597 12.068 69.6557 12.004C69.5517 11.94 69.4437 11.88 69.3317 11.824C69.2277 11.76 69.1197 11.708 69.0077 11.668C68.8957 11.628 68.7717 11.608 68.6357 11.608C68.3317 11.608 68.0597 11.676 67.8197 11.812C67.5877 11.94 67.4037 12.12 67.2677 12.352C67.1397 12.584 67.0757 12.852 67.0757 13.156C67.0757 13.46 67.1397 13.732 67.2677 13.972C67.4037 14.204 67.5877 14.388 67.8197 14.524C68.0517 14.652 68.3157 14.716 68.6117 14.716C68.7557 14.716 68.8917 14.7 69.0197 14.668C69.1557 14.628 69.2757 14.58 69.3797 14.524C69.4837 14.46 69.5677 14.396 69.6317 14.332C69.7197 14.276 69.7997 14.224 69.8717 14.176C69.9437 14.128 70.0197 14.104 70.0997 14.104C70.1957 14.104 70.2877 14.14 70.3757 14.212C70.4717 14.276 70.5757 14.38 70.6877 14.524C70.7917 14.644 70.8477 14.76 70.8557 14.872C70.8717 14.984 70.8477 15.092 70.7837 15.196C70.7277 15.3 70.6317 15.396 70.4957 15.484C70.3997 15.58 70.2557 15.68 70.0637 15.784C69.8797 15.88 69.6637 15.964 69.4157 16.036C69.1757 16.108 68.9237 16.144 68.6597 16.144ZM74.7417 16.192C74.2217 16.192 73.7657 16.108 73.3737 15.94C72.9897 15.772 72.6657 15.544 72.4017 15.256C72.1457 14.96 71.9497 14.632 71.8137 14.272C71.6857 13.904 71.6217 13.524 71.6217 13.132C71.6217 12.556 71.7537 12.044 72.0177 11.596C72.2817 11.148 72.6457 10.796 73.1097 10.54C73.5817 10.284 74.1217 10.156 74.7297 10.156C75.1617 10.156 75.5417 10.224 75.8697 10.36C76.1977 10.496 76.4697 10.676 76.6857 10.9C76.9097 11.116 77.0777 11.356 77.1897 11.62C77.3097 11.884 77.3697 12.14 77.3697 12.388C77.3697 12.812 77.2657 13.12 77.0577 13.312C76.8577 13.504 76.6057 13.6 76.3017 13.6H73.1337C73.1417 13.872 73.2257 14.108 73.3857 14.308C73.5537 14.508 73.7617 14.664 74.0097 14.776C74.2657 14.88 74.5257 14.932 74.7897 14.932C74.9897 14.932 75.1657 14.92 75.3177 14.896C75.4777 14.872 75.6137 14.844 75.7257 14.812C75.8377 14.772 75.9337 14.732 76.0137 14.692C76.1017 14.652 76.1817 14.616 76.2537 14.584C76.3257 14.552 76.3937 14.532 76.4577 14.524C76.5457 14.516 76.6337 14.536 76.7217 14.584C76.8097 14.632 76.8817 14.716 76.9377 14.836C76.9857 14.916 77.0177 14.992 77.0337 15.064C77.0577 15.128 77.0697 15.192 77.0697 15.256C77.0697 15.416 76.9737 15.568 76.7817 15.712C76.5897 15.848 76.3177 15.96 75.9657 16.048C75.6217 16.144 75.2137 16.192 74.7417 16.192ZM73.1337 12.748H75.5937C75.7297 12.748 75.8337 12.728 75.9057 12.688C75.9777 12.64 76.0137 12.544 76.0137 12.4C76.0137 12.216 75.9577 12.052 75.8457 11.908C75.7337 11.756 75.5817 11.64 75.3897 11.56C75.1977 11.472 74.9737 11.428 74.7177 11.428C74.4217 11.428 74.1537 11.488 73.9137 11.608C73.6737 11.72 73.4817 11.876 73.3377 12.076C73.2017 12.276 73.1337 12.5 73.1337 12.748Z" fill="white"/>
<g filter="url(#filter0_d_217_878)">
<circle cx="14" cy="12" r="12" fill="url(#paint0_linear_217_878)"/>
</g>
<path d="M17.75 5.25C17.9337 5.25002 18.111 5.31747 18.2483 5.43954C18.3855 5.56161 18.4732 5.72981 18.4947 5.91225L18.5 6V7.6275C18.8393 7.50795 19.2023 7.4715 19.5586 7.52121C19.9149 7.57092 20.2541 7.70535 20.5477 7.91321C20.8414 8.12107 21.0809 8.3963 21.2461 8.71584C21.4114 9.03537 21.4977 9.38987 21.4977 9.74963C21.4977 10.1094 21.4114 10.4639 21.2461 10.7834C21.0809 11.1029 20.8414 11.3782 20.5477 11.586C20.2541 11.7939 19.9149 11.9283 19.5586 11.978C19.2023 12.0278 18.8393 11.9913 18.5 11.8718V12C18.4998 13.0635 18.1232 14.0926 17.4368 14.9049C16.7504 15.7172 15.7985 16.2602 14.75 16.4377V18H17C17.1911 18.0002 17.375 18.0734 17.514 18.2046C17.653 18.3359 17.7367 18.5152 17.7479 18.706C17.7591 18.8969 17.697 19.0848 17.5743 19.2314C17.4516 19.378 17.2776 19.4722 17.0877 19.4948L17 19.5H11C10.8088 19.4998 10.625 19.4266 10.486 19.2954C10.347 19.1641 10.2633 18.9848 10.2521 18.794C10.2409 18.6031 10.303 18.4152 10.4257 18.2686C10.5484 18.122 10.7224 18.0278 10.9122 18.0052L11 18H13.25V16.4377C12.23 16.2651 11.3006 15.7464 10.6181 14.9689C9.93571 14.1914 9.5419 13.2025 9.50298 12.1688L9.49998 12V11.8718C9.17105 11.9882 8.81955 12.0265 8.47325 11.9837C8.12695 11.941 7.79535 11.8182 7.50465 11.6252C7.21395 11.4322 6.97212 11.1743 6.79828 10.8717C6.62444 10.5692 6.52334 10.2303 6.50298 9.882L6.50073 9.75L6.50448 9.618C6.52477 9.26969 6.62577 8.93086 6.79953 8.6283C6.97328 8.32574 7.21502 8.06774 7.50563 7.87467C7.79625 7.6816 8.12779 7.55877 8.47404 7.51587C8.8203 7.47297 9.17179 7.51119 9.50073 7.6275L9.49998 6C9.49998 5.80109 9.579 5.61032 9.71965 5.46967C9.8603 5.32902 10.0511 5.25 10.25 5.25H17.75ZM8.74998 9C8.55107 9 8.3603 9.07902 8.21965 9.21967C8.079 9.36032 7.99998 9.55109 7.99998 9.75C7.99998 9.94891 8.079 10.1397 8.21965 10.2803C8.3603 10.421 8.55107 10.5 8.74998 10.5C8.94889 10.5 9.13966 10.421 9.28031 10.2803C9.42096 10.1397 9.49998 9.94891 9.49998 9.75C9.49998 9.55109 9.42096 9.36032 9.28031 9.21967C9.13966 9.07902 8.94889 9 8.74998 9ZM19.25 9C19.0511 9 18.8603 9.07902 18.7197 9.21967C18.579 9.36032 18.5 9.55109 18.5 9.75C18.5 9.94891 18.579 10.1397 18.7197 10.2803C18.8603 10.421 19.0511 10.5 19.25 10.5C19.4489 10.5 19.6397 10.421 19.7803 10.2803C19.921 10.1397 20 9.94891 20 9.75C20 9.55109 19.921 9.36032 19.7803 9.21967C19.6397 9.07902 19.4489 9 19.25 9Z" fill="#FAFBFB"/>
<defs>
<filter id="filter0_d_217_878" x="0" y="0" width="28" height="28" filterUnits="userSpaceOnUse" color-interpolation-filters="sRGB">
<feFlood flood-opacity="0" result="BackgroundImageFix"/>
<feColorMatrix in="SourceAlpha" type="matrix" values="0 0 0 0 0 0 0 0 0 0 0 0 0 0 0 0 0 0 127 0" result="hardAlpha"/>
<feOffset dy="2"/>
<feGaussianBlur stdDeviation="1"/>
<feComposite in2="hardAlpha" operator="out"/>
<feColorMatrix type="matrix" values="0 0 0 0 0 0 0 0 0 0 0 0 0 0 0 0 0 0 0.2 0"/>
<feBlend mode="normal" in2="BackgroundImageFix" result="effect1_dropShadow_217_878"/>
<feBlend mode="normal" in="SourceGraphic" in2="effect1_dropShadow_217_878" result="shape"/>
</filter>
<linearGradient id="paint0_linear_217_878" x1="2" y1="-1.36364" x2="26.5393" y2="22.6303" gradientUnits="userSpaceOnUse">
<stop offset="0.142594" stop-color="#FB32C8"/>
<stop offset="0.5" stop-color="#666FFF"/>
<stop offset="0.855478" stop-color="#008FC2"/>
</linearGradient>
</defs>
</svg>
