<svg width="48" height="48" viewBox="0 0 48 48" fill="none" xmlns="http://www.w3.org/2000/svg">
    <path d="M34.0005 40C34.0005 39.4696 33.7896 38.961 33.4146 38.5859C33.0395 38.2109 32.5309 38 32.0005 38C30.8959 38 30.0005 37.1046 30.0005 36C30.0005 34.8954 30.8959 34 32.0005 34C32.5309 34 33.0395 33.7891 33.4146 33.4141C33.7896 33.039 34.0005 32.5304 34.0005 32C34.0005 30.8954 34.8959 30 36.0005 30C37.1051 30 38.0005 30.8954 38.0005 32C38.0005 32.5304 38.2114 33.039 38.5864 33.4141C38.9615 33.7891 39.4701 34 40.0005 34C41.1051 34 42.0005 34.8954 42.0005 36C42.0005 37.1046 41.1051 38 40.0005 38C39.4701 38 38.9615 38.2109 38.5864 38.5859C38.2114 38.961 38.0005 39.4696 38.0005 40C38.0005 41.1046 37.1051 42 36.0005 42C34.8959 42 34.0005 41.1046 34.0005 40ZM16.0005 36C16.0005 33.3478 14.9462 30.8051 13.0708 28.9297C11.1954 27.0543 8.65265 26 6.00049 26C4.89592 26 4.00049 25.1046 4.00049 24C4.00049 22.8954 4.89592 22 6.00049 22C8.65265 22 11.1954 20.9457 13.0708 19.0703C14.9462 17.1949 16.0005 14.6522 16.0005 12C16.0005 10.8954 16.8959 10 18.0005 10C19.1051 10 20.0005 10.8954 20.0005 12C20.0005 14.6522 21.0548 17.1949 22.9302 19.0703C24.8055 20.9457 27.3483 22 30.0005 22C31.1051 22 32.0005 22.8954 32.0005 24C32.0005 25.1046 31.1051 26 30.0005 26C27.3483 26 24.8055 27.0543 22.9302 28.9297C21.0548 30.8051 20.0005 33.3478 20.0005 36C20.0005 37.1046 19.1051 38 18.0005 38C16.8959 38 16.0005 37.1046 16.0005 36ZM18.0005 19.209C17.4172 20.18 16.7153 21.086 15.9009 21.9004C15.0865 22.7148 14.1805 23.4167 13.2095 24C14.1805 24.5833 15.0865 25.2852 15.9009 26.0996C16.7149 26.9136 17.4173 27.8185 18.0005 28.7891C18.5836 27.8185 19.2861 26.9136 20.1001 26.0996C20.9141 25.2856 21.819 24.5832 22.7896 24C21.819 23.4168 20.9141 22.7144 20.1001 21.9004C19.2857 21.086 18.5838 20.18 18.0005 19.209ZM34.0005 16C34.0005 15.4696 33.7896 14.961 33.4146 14.5859C33.0395 14.2109 32.5309 14 32.0005 14C30.8959 14 30.0005 13.1046 30.0005 12C30.0005 10.8954 30.8959 10 32.0005 10L32.1978 9.99023C32.6558 9.94485 33.0863 9.74235 33.4146 9.41406C33.7896 9.03899 34.0005 8.53043 34.0005 8C34.0005 6.89543 34.8959 6 36.0005 6C37.1051 6 38.0005 6.89543 38.0005 8C38.0005 8.53043 38.2114 9.03899 38.5864 9.41406C38.9615 9.78914 39.4701 10 40.0005 10C41.1051 10 42.0005 10.8954 42.0005 12C42.0005 13.1046 41.1051 14 40.0005 14C39.4701 14 38.9615 14.2109 38.5864 14.5859C38.2114 14.961 38.0005 15.4696 38.0005 16C38.0005 17.1046 37.1051 18 36.0005 18C34.8959 18 34.0005 17.1046 34.0005 16Z" fill="white"/>
</svg>
