<svg width="48" height="48" viewBox="0 0 48 48" fill="none" xmlns="http://www.w3.org/2000/svg">
<circle opacity="0.24" cx="24" cy="24" r="24" fill="#2A2E2F"/>
<path d="M17.8997 13.6476C20.2042 12.3163 22.8826 11.7797 25.5221 12.1203C28.1614 12.4609 30.6155 13.6593 32.5065 15.5318C34.3976 17.4044 35.6206 19.8475 35.987 22.4836C36.0882 23.2128 35.5795 23.8861 34.8503 23.9875C34.1211 24.0888 33.4479 23.5799 33.3464 22.8508C33.0605 20.7941 32.1056 18.8874 30.6302 17.4263C29.1549 15.9655 27.2401 15.0305 25.181 14.7648C23.1217 14.4991 21.0323 14.9177 19.2344 15.9562C18.0515 16.6396 17.0389 17.5673 16.2565 18.6672H18.6667C19.403 18.6672 20 19.2641 20 20.0005C19.9998 20.7367 19.4029 21.3338 18.6667 21.3338H13.3333C12.5971 21.3338 12.0002 20.7367 12 20.0005V14.6672C12 13.9308 12.597 13.3338 13.3333 13.3338C14.0697 13.3338 14.6667 13.9308 14.6667 14.6672V16.3664C15.5716 15.2854 16.6628 14.3623 17.8997 13.6476Z" fill="white"/>
<path d="M33.3334 33.3334V31.6316C32.4283 32.7132 31.3378 33.638 30.1003 34.3529C27.7959 35.6843 25.1174 36.2209 22.4779 35.8803C19.8384 35.5397 17.3846 34.3402 15.4936 32.4675C13.6026 30.5949 12.3795 28.153 12.0131 25.517C11.9117 24.7877 12.4205 24.1145 13.1498 24.0131C13.8792 23.9117 14.5523 24.4205 14.6537 25.1498C14.9396 27.2065 15.8944 29.1119 17.3699 30.573C18.8453 32.0341 20.7597 32.97 22.8191 33.2358C24.8783 33.5015 26.9678 33.0828 28.7657 32.0444C29.9482 31.3612 30.96 30.4329 31.7423 29.3334H29.3334C28.597 29.3334 28.0001 28.7365 28.0001 28.0001C28.0001 27.2637 28.597 26.6668 29.3334 26.6668H34.6668L34.8035 26.6733C35.4756 26.7417 36.0001 27.3098 36.0001 28.0001V33.3334C36.0001 34.0698 35.4031 34.6668 34.6668 34.6668C33.9304 34.6668 33.3334 34.0698 33.3334 33.3334Z" fill="white"/>
</svg>
