<svg width="48" height="48" viewBox="0 0 48 48" fill="none" xmlns="http://www.w3.org/2000/svg">
    <path d="M24.0005 10C24.6692 10 25.2936 10.3342 25.6645 10.8906L32.4536 21.0742L40.7505 14.4375C41.4066 13.9126 42.3216 13.8545 43.0395 14.291C43.7576 14.728 44.1263 15.5683 43.9614 16.3926L39.9614 36.3926C39.7743 37.3272 38.9537 38 38.0005 38H10.0005C9.04723 38 8.22664 37.3272 8.03952 36.3926L4.03952 16.3926C3.87467 15.5683 4.24333 14.728 4.9614 14.291C5.67935 13.8545 6.59429 13.9126 7.25046 14.4375L15.5454 21.0742L22.3364 10.8906L22.4868 10.6934C22.864 10.2563 23.4151 10 24.0005 10ZM17.6645 25.1094C17.3536 25.5758 16.861 25.8906 16.3071 25.9766C15.7533 26.0625 15.1881 25.9126 14.7505 25.5625L9.03757 20.9922L11.6391 34H36.3618L38.9614 20.9922L33.2505 25.5625C32.8128 25.9126 32.2477 26.0625 31.6938 25.9766C31.1399 25.8906 30.6473 25.5758 30.3364 25.1094L24.0005 15.6055L17.6645 25.1094Z" fill="white"/>
</svg>
