<svg width="16" height="16" viewBox="0 0 16 16" fill="none" xmlns="http://www.w3.org/2000/svg">
<path d="M0.00440067 7.33046C0.0455003 4.02224 0.0660501 2.36814 1.21709 1.21709C2.36814 0.0660501 4.02225 0.0455003 7.33046 0.00440066C7.5607 0.00154038 7.78465 0 8 0C8.21535 0 8.4393 0.00154038 8.66954 0.00440067C11.9778 0.0455003 13.6319 0.0660501 14.7829 1.21709C15.934 2.36814 15.9545 4.02225 15.9956 7.33046C15.9985 7.5607 16 7.78465 16 8C16 8.21535 15.9985 8.4393 15.9956 8.66954C15.9545 11.9778 15.934 13.6319 14.7829 14.7829C13.6319 15.934 11.9778 15.9545 8.66954 15.9956C8.4393 15.9985 8.21535 16 8 16C7.78465 16 7.5607 15.9985 7.33046 15.9956C4.02224 15.9545 2.36814 15.934 1.21709 14.7829C0.0660501 13.6319 0.0455003 11.9778 0.00440066 8.66954C0.00154038 8.4393 0 8.21535 0 8C0 7.78465 0.00154038 7.5607 0.00440067 7.33046Z" fill="url(#paint0_linear_2155_3345)"/>
<path d="M10.5325 5.94249C10.55 5.50553 10.4223 5.1682 10.1493 4.93049C9.87985 4.69279 9.47216 4.57393 8.92623 4.57393C8.55528 4.57393 8.23333 4.62637 7.96036 4.73124C7.6874 4.83261 7.46868 4.97419 7.30421 5.15596C7.14323 5.33424 7.04349 5.54049 7.005 5.7747C6.9665 5.96696 6.97875 6.13475 7.04174 6.27807C7.10823 6.4214 7.21147 6.54549 7.35145 6.65036C7.49493 6.75174 7.66466 6.84088 7.86063 6.91778C8.0566 6.99119 8.26482 7.05411 8.48529 7.10655L9.40916 7.33726C9.8606 7.44213 10.2665 7.58196 10.627 7.75674C10.9909 7.93153 11.2954 8.14651 11.5404 8.4017C11.7888 8.65688 11.9638 8.95751 12.0653 9.30358C12.1668 9.64965 12.1808 10.0464 12.1073 10.4939C11.9953 11.151 11.7346 11.7208 11.3251 12.2032C10.9157 12.6821 10.3785 13.0544 9.71362 13.3201C9.04871 13.5823 8.27882 13.7134 7.40394 13.7134C6.53606 13.7134 5.80291 13.5805 5.2045 13.3149C4.60608 13.0492 4.17039 12.6559 3.89743 12.1351C3.62797 11.6107 3.54748 10.9623 3.65596 10.1897H5.85541C5.81691 10.5498 5.8694 10.8504 6.01289 11.0916C6.15986 11.3293 6.37858 11.5094 6.66904 11.6317C6.9595 11.7506 7.30071 11.81 7.69265 11.81C8.0811 11.81 8.4258 11.754 8.72676 11.6422C9.03122 11.5303 9.27793 11.3748 9.46691 11.1755C9.65588 10.9763 9.77136 10.7473 9.81336 10.4886C9.85535 10.2474 9.81861 10.0447 9.70312 9.88037C9.58764 9.71607 9.40217 9.57624 9.1467 9.46089C8.89474 9.34203 8.58153 9.23716 8.20708 9.14628L7.08374 8.85264C6.21586 8.63241 5.5597 8.28809 5.11526 7.81967C4.67082 7.35125 4.51159 6.72028 4.63758 5.92676C4.74956 5.27656 5.02077 4.70852 5.45121 4.22262C5.88515 3.73322 6.43108 3.35394 7.08899 3.08478C7.75039 2.81211 8.47304 2.67578 9.25694 2.67578C10.0548 2.67578 10.7285 2.81386 11.2779 3.09002C11.8273 3.36268 12.228 3.74371 12.48 4.2331C12.732 4.7225 12.8089 5.29229 12.711 5.94249H10.5325Z" fill="white"/>
<path d="M2.01282 3.54102C2.01282 3.54102 2.96361 3.46552 3.40485 3.79861C3.84609 4.1317 4.03399 5.06679 4.03399 5.06679C4.03399 5.06679 3.95849 4.116 4.29158 3.67476C4.62468 3.23352 5.55977 3.04562 5.55977 3.04562C5.55977 3.04562 4.60898 3.12112 4.16774 2.78803C3.72649 2.45493 3.5386 1.51985 3.5386 1.51985C3.5386 1.51985 3.61409 2.47063 3.281 2.91187C2.94791 3.35312 2.01282 3.54102 2.01282 3.54102Z" fill="white"/>
<path d="M1.68347 5.83984C1.68347 5.83984 2.20026 5.58433 2.52261 5.67239C2.84497 5.76045 3.16006 6.24323 3.16006 6.24323C3.16006 6.24323 2.90454 5.72644 2.99261 5.40409C3.08067 5.08173 3.56345 4.76664 3.56345 4.76664C3.56345 4.76664 3.04666 5.02216 2.72431 4.93409C2.40195 4.84603 2.08686 4.36325 2.08686 4.36325C2.08686 4.36325 2.34238 4.88004 2.25431 5.20239C2.16625 5.52475 1.68347 5.83984 1.68347 5.83984Z" fill="white"/>
<defs>
<linearGradient id="paint0_linear_2155_3345" x1="4.13328e-07" y1="-0.909091" x2="19.2281" y2="17.7081" gradientUnits="userSpaceOnUse">
<stop offset="0.142594" stop-color="#FB46CD"/>
<stop offset="0.5" stop-color="#6C75FF"/>
<stop offset="1" stop-color="#0DBFFF"/>
</linearGradient>
</defs>
</svg>
