<svg width="21" height="10" viewBox="0 0 21 10" fill="none" xmlns="http://www.w3.org/2000/svg">
<path d="M1 3L3 1V9" stroke="#F1F2F2" stroke-width="2" stroke-linecap="round" stroke-linejoin="round"/>
<path d="M8 1H11C11.2652 1 11.5196 1.10536 11.7071 1.29289C11.8946 1.48043 12 1.73478 12 2V4C12 4.26522 11.8946 4.51957 11.7071 4.70711C11.5196 4.89464 11.2652 5 11 5H9C8.73478 5 8.48043 5.10536 8.29289 5.29289C8.10536 5.48043 8 5.73478 8 6V8C8 8.26522 8.10536 8.51957 8.29289 8.70711C8.48043 8.89464 8.73478 9 9 9H12" stroke="#F1F2F2" stroke-width="2" stroke-linecap="round" stroke-linejoin="round"/>
<path d="M16 1H18.5C18.8978 1 19.2794 1.15804 19.5607 1.43934C19.842 1.72064 20 2.10218 20 2.5V3.5C20 3.89782 19.842 4.27936 19.5607 4.56066C19.2794 4.84196 18.8978 5 18.5 5M18.5 5H17M18.5 5C18.8978 5 19.2794 5.15804 19.5607 5.43934C19.842 5.72064 20 6.10218 20 6.5V7.5C20 7.89782 19.842 8.27936 19.5607 8.56066C19.2794 8.84196 18.8978 9 18.5 9H16" stroke="#F1F2F2" stroke-width="2" stroke-linecap="round" stroke-linejoin="round"/>
</svg>
