<svg width="16" height="17" viewBox="0 0 16 17" fill="none" xmlns="http://www.w3.org/2000/svg">
    <g filter="url(#filter0_d_1139_2606)">
        <path d="M12.2187 4.99935C12.2187 4.8394 12.1875 4.68098 12.1263 4.5332C12.065 4.38531 11.9752 4.25056 11.862 4.13737C11.7489 4.02433 11.6145 3.93493 11.4668 3.8737C11.3189 3.81244 11.1601 3.7806 11 3.7806C10.8399 3.7806 10.6811 3.81244 10.5332 3.8737C10.3855 3.93493 10.2511 4.02433 10.138 4.13737L3.33333 10.9421V12.666H5.05729L11.862 5.86133C11.9751 5.74817 12.0651 5.61397 12.1263 5.46615C12.1876 5.31826 12.2187 5.15943 12.2187 4.99935ZM13.5521 4.99935C13.5521 5.33452 13.4863 5.6669 13.3581 5.97656C13.2298 6.28609 13.0416 6.56711 12.8047 6.80404L5.80469 13.804C5.67966 13.9291 5.51014 13.9993 5.33333 13.9993H2.66667C2.29848 13.9993 2 13.7009 2 13.3327V10.666L2.00326 10.6003C2.01842 10.4477 2.08593 10.304 2.19531 10.1947L9.19531 3.19466C9.43229 2.95771 9.71382 2.76952 10.0234 2.64128C10.333 2.51307 10.6649 2.44727 11 2.44727C11.3351 2.44727 11.667 2.51307 11.9766 2.64128C12.2862 2.76952 12.5677 2.95771 12.8047 3.19466C13.0417 3.43166 13.2298 3.71313 13.3581 4.02279C13.4863 4.33238 13.5521 4.66425 13.5521 4.99935Z" fill="#FAFBFB"/>
    </g>
    <path d="M8.52865 3.86225C8.789 3.6019 9.21101 3.6019 9.47136 3.86225L12.138 6.52892C12.3984 6.78927 12.3984 7.21128 12.138 7.47163C11.8777 7.73198 11.4557 7.73198 11.1953 7.47163L8.52865 4.80496C8.2683 4.54461 8.2683 4.1226 8.52865 3.86225Z" fill="#FAFBFB"/>
    <defs>
        <filter id="filter0_d_1139_2606" x="0" y="1.44727" width="15.5521" height="15.5518" filterUnits="userSpaceOnUse" color-interpolation-filters="sRGB">
            <feFlood flood-opacity="0" result="BackgroundImageFix"/>
            <feColorMatrix in="SourceAlpha" type="matrix" values="0 0 0 0 0 0 0 0 0 0 0 0 0 0 0 0 0 0 127 0" result="hardAlpha"/>
            <feOffset dy="1"/>
            <feGaussianBlur stdDeviation="1"/>
            <feComposite in2="hardAlpha" operator="out"/>
            <feColorMatrix type="matrix" values="0 0 0 0 0 0 0 0 0 0 0 0 0 0 0 0 0 0 0.75 0"/>
            <feBlend mode="normal" in2="BackgroundImageFix" result="effect1_dropShadow_1139_2606"/>
            <feBlend mode="normal" in="SourceGraphic" in2="effect1_dropShadow_1139_2606" result="shape"/>
        </filter>
    </defs>
</svg>
