<svg width="68" height="68" viewBox="0 0 68 68" fill="none" xmlns="http://www.w3.org/2000/svg">
<path d="M33.9999 5.66699C36.8018 5.66699 39.5408 6.49785 41.8705 8.05451C44.2002 9.61116 46.016 11.8237 47.0882 14.4123C48.1605 17.0009 48.441 19.8494 47.8944 22.5974C47.3478 25.3455 45.9985 27.8698 44.0173 29.851C42.036 31.8322 39.5118 33.1815 36.7637 33.7281C34.0156 34.2747 31.1672 33.9942 28.5786 32.922C25.99 31.8497 23.7774 30.0339 22.2208 27.7042C20.6641 25.3745 19.8333 22.6356 19.8333 19.8337L19.8474 19.2188C20.0059 15.5716 21.5661 12.1264 24.2029 9.60153C26.8396 7.07669 30.3493 5.6672 33.9999 5.66699Z" fill="#F1F2F2"/>
<path d="M39.6667 39.667C43.424 39.667 47.0273 41.1595 49.6841 43.8163C52.3409 46.4731 53.8334 50.0764 53.8334 53.8337V56.667C53.8334 58.1699 53.2364 59.6112 52.1737 60.6739C51.111 61.7366 49.6696 62.3337 48.1667 62.3337H19.8334C18.3305 62.3337 16.8892 61.7366 15.8265 60.6739C14.7638 59.6112 14.1667 58.1699 14.1667 56.667V53.8337C14.1667 50.0764 15.6593 46.4731 18.3161 43.8163C20.9728 41.1595 24.5762 39.667 28.3334 39.667H39.6667Z" fill="#F1F2F2"/>
</svg>
