<svg width="48" height="48" viewBox="0 0 48 48" fill="none" xmlns="http://www.w3.org/2000/svg">
    <path d="M36.0005 8C36.7029 8 37.3538 8.36846 37.7153 8.9707L43.7153 18.9707C44.1663 19.7223 44.0752 20.6807 43.4907 21.334L26.4907 40.334C26.4706 40.3564 26.4492 40.3789 26.4282 40.4004C26.1118 40.7231 25.7335 40.9792 25.3169 41.1543C25.0042 41.2856 24.6745 41.3707 24.3383 41.4043L24.0005 41.4199C23.5483 41.4199 23.1009 41.3294 22.684 41.1543C22.2674 40.9792 21.8891 40.7231 21.5727 40.4004C21.5517 40.3789 21.5303 40.3564 21.5102 40.334L4.51022 21.334C3.92574 20.6807 3.83463 19.7223 4.28561 18.9707L10.2856 8.9707L10.434 8.75586C10.8104 8.28189 11.3858 8 12.0004 8H36.0005ZM8.47311 19.7637L24.0005 37.1172L39.5258 19.7637L34.8676 12H13.1333L8.47311 19.7637Z" fill="white"/>
    <path d="M15.4849 16.5705C16.0531 15.6234 17.2819 15.3169 18.229 15.8849C19.1762 16.4532 19.4829 17.6819 18.9146 18.6291L18.479 19.3517L21.481 22.6545C22.2235 23.4715 22.1628 24.7357 21.3462 25.4787C20.5289 26.2216 19.2631 26.1631 18.52 25.3459L14.52 20.9455C13.9265 20.2925 13.8317 19.3271 14.2857 18.5705L15.4849 16.5705Z" fill="white"/>
</svg>
