<svg width="24" height="24" viewBox="0 0 24 24" fill="none" xmlns="http://www.w3.org/2000/svg">
<g clip-path="url(#clip0_866_4225)">
<path d="M12 8C12.2652 8.00002 12.5195 8.10545 12.707 8.29297C12.8945 8.4805 13 8.7348 13 9V11H15C15.2652 11 15.5195 11.1055 15.707 11.293C15.8945 11.4805 16 11.7348 16 12C16 12.2652 15.8945 12.5195 15.707 12.707C15.5195 12.8945 15.2652 13 15 13H13V15C13 15.2652 12.8945 15.5195 12.707 15.707C12.5195 15.8945 12.2652 16 12 16C11.7348 16 11.4805 15.8945 11.293 15.707C11.1054 15.5195 11 15.2652 11 15V13H9C8.7348 13 8.4805 12.8945 8.29297 12.707C8.10543 12.5195 8 12.2652 8 12C8.00001 11.7348 8.10544 11.4805 8.29297 11.293C8.4805 11.1055 8.73481 11 9 11H11V9C11 8.73479 11.1054 8.4805 11.293 8.29297C11.4805 8.10546 11.7348 8 12 8Z" fill="#FAFBFB"/>
<path d="M4.92892 4.92927C5.85311 3.98135 6.95632 3.22638 8.17456 2.70815C9.3928 2.18992 10.7018 1.91875 12.0257 1.91036C13.3495 1.90197 14.6619 2.15653 15.8866 2.65928C17.1113 3.16203 18.224 3.90296 19.1601 4.83909C20.0962 5.77521 20.8372 6.8879 21.3399 8.11261C21.8427 9.33732 22.0972 10.6497 22.0888 11.9735C22.0804 13.2974 21.8093 14.6064 21.291 15.8246C20.7728 17.0429 20.0178 18.1461 19.0699 19.0703C17.1839 20.8918 14.6579 21.8998 12.0359 21.877C9.41394 21.8542 6.90582 20.8025 5.05174 18.9485C3.19765 17.0944 2.14596 14.5862 2.12318 11.9643C2.1004 9.34231 3.10834 6.81629 4.92992 4.93026L4.92892 4.92927ZM12.9999 9.00027C12.9999 8.73505 12.8946 8.48069 12.707 8.29316C12.5195 8.10562 12.2651 8.00027 11.9999 8.00027C11.7347 8.00027 11.4804 8.10562 11.2928 8.29316C11.1053 8.48069 10.9999 8.73505 10.9999 9.00027V11.0003H8.99992C8.7347 11.0003 8.48035 11.1056 8.29281 11.2932C8.10528 11.4807 7.99992 11.735 7.99992 12.0003C7.99992 12.2655 8.10528 12.5198 8.29281 12.7074C8.48035 12.8949 8.7347 13.0003 8.99992 13.0003H10.9999V15.0003C10.9999 15.2655 11.1053 15.5198 11.2928 15.7074C11.4804 15.8949 11.7347 16.0003 11.9999 16.0003C12.2651 16.0003 12.5195 15.8949 12.707 15.7074C12.8946 15.5198 12.9999 15.2655 12.9999 15.0003V13.0003H14.9999C15.2651 13.0003 15.5195 12.8949 15.707 12.7074C15.8946 12.5198 15.9999 12.2655 15.9999 12.0003C15.9999 11.735 15.8946 11.4807 15.707 11.2932C15.5195 11.1056 15.2651 11.0003 14.9999 11.0003H12.9999V9.00027Z" fill="#4660A8"/>
</g>
<defs>
<clipPath id="clip0_866_4225">
<rect width="24" height="24" fill="white"/>
</clipPath>
</defs>
</svg>
