<svg width="24" height="35" viewBox="0 0 24 35" fill="none" xmlns="http://www.w3.org/2000/svg">
    <g filter="url(#filter0_d_861_1934)">
        <path d="M12.0301 18.728C11.4061 18.728 10.9501 18.644 10.6621 18.476C10.3741 18.308 10.1941 18.08 10.1221 17.792C10.0741 17.48 10.0501 17.144 10.0501 16.784V14.444C10.0501 13.868 10.1821 13.412 10.4461 13.076C10.7101 12.74 11.0461 12.464 11.4541 12.248C11.8861 12.008 12.3301 11.792 12.7861 11.6C13.2661 11.384 13.7101 11.144 14.1181 10.88C14.5501 10.592 14.8981 10.22 15.1621 9.764C15.4261 9.308 15.5581 8.708 15.5581 7.964C15.5581 6.86 15.2461 6.02 14.6221 5.444C14.0221 4.844 13.0981 4.544 11.8501 4.544C11.2741 4.544 10.7581 4.64 10.3021 4.832C9.84609 5 9.46209 5.24 9.15009 5.552C8.86209 5.84 8.64609 6.188 8.50209 6.596C8.35809 7.052 8.17809 7.4 7.96209 7.64C7.77009 7.88 7.51809 8.024 7.20609 8.072C6.91809 8.12 6.51009 8.06 5.98209 7.892C5.47809 7.676 5.10609 7.472 4.86609 7.28C4.62609 7.088 4.48209 6.848 4.43409 6.56C4.41009 6.272 4.47009 5.9 4.61409 5.444C4.68609 5.132 4.83009 4.772 5.04609 4.364C5.26209 3.956 5.55009 3.536 5.91009 3.104C6.29409 2.648 6.76209 2.24 7.31409 1.88C7.89009 1.496 8.55009 1.196 9.29409 0.979998C10.0381 0.739998 10.8901 0.619998 11.8501 0.619998C13.3861 0.619998 14.7301 0.931999 15.8821 1.556C17.0341 2.156 17.9221 3.008 18.5461 4.112C19.1941 5.192 19.5181 6.452 19.5181 7.892C19.5181 8.756 19.3981 9.536 19.1581 10.232C18.9181 10.928 18.5821 11.54 18.1501 12.068C17.7421 12.596 17.2861 13.052 16.7821 13.436C16.2781 13.82 15.7741 14.132 15.2701 14.372C14.7661 14.612 14.2981 14.792 13.8661 14.912L14.0821 14.516V16.928C14.0821 17.264 14.0461 17.576 13.9741 17.864C13.9021 18.128 13.7221 18.344 13.4341 18.512C13.1461 18.656 12.6781 18.728 12.0301 18.728ZM11.9941 26.36C11.0101 26.36 10.3621 26.168 10.0501 25.784C9.73809 25.4 9.58209 24.776 9.58209 23.912C9.58209 23.552 9.61809 23.192 9.69009 22.832C9.76209 22.448 9.96609 22.136 10.3021 21.896C10.6381 21.632 11.2141 21.5 12.0301 21.5C13.0381 21.5 13.6861 21.692 13.9741 22.076C14.2861 22.46 14.4421 23.084 14.4421 23.948C14.4421 24.332 14.4061 24.716 14.3341 25.1C14.2861 25.46 14.0821 25.76 13.7221 26C13.3861 26.24 12.8101 26.36 11.9941 26.36Z" fill="#F1F2F2"/>
    </g>
    <defs>
        <filter id="filter0_d_861_1934" x="0.398071" y="0.620117" width="23.12" height="33.7402" filterUnits="userSpaceOnUse" color-interpolation-filters="sRGB">
            <feFlood flood-opacity="0" result="BackgroundImageFix"/>
            <feColorMatrix in="SourceAlpha" type="matrix" values="0 0 0 0 0 0 0 0 0 0 0 0 0 0 0 0 0 0 127 0" result="hardAlpha"/>
            <feOffset dy="4"/>
            <feGaussianBlur stdDeviation="2"/>
            <feComposite in2="hardAlpha" operator="out"/>
            <feColorMatrix type="matrix" values="0 0 0 0 0 0 0 0 0 0 0 0 0 0 0 0 0 0 0.2 0"/>
            <feBlend mode="normal" in2="BackgroundImageFix" result="effect1_dropShadow_861_1934"/>
            <feBlend mode="normal" in="SourceGraphic" in2="effect1_dropShadow_861_1934" result="shape"/>
        </filter>
    </defs>
</svg>
