<svg width="18" height="18" viewBox="0 0 18 18" fill="none" xmlns="http://www.w3.org/2000/svg">
    <path d="M7.31971 2.46321C10.6025 1.62129 14.0119 3.31062 15.2716 6.47249C15.4247 6.85722 15.2367 7.29334 14.8519 7.44661C14.4673 7.59968 14.0311 7.41225 13.8778 7.02767C12.9025 4.57961 10.2582 3.2584 7.69252 3.91634V3.91561C6.76956 4.15304 5.92885 4.63772 5.26014 5.31673C4.59141 5.99576 4.11966 6.84383 3.89637 7.77034C3.6731 8.69688 3.7063 9.66712 3.99232 10.5762C4.27834 11.4853 4.8067 12.2992 5.52015 12.931C6.2337 13.5628 7.10627 13.9883 8.04335 14.1622C8.98032 14.336 9.94715 14.2513 10.8397 13.9176C11.7323 13.5837 12.5172 13.0134 13.1102 12.2674C13.7032 11.5215 14.082 10.6282 14.2059 9.68343C14.2598 9.27273 14.6368 8.98284 15.0475 9.0367C15.4581 9.09068 15.7473 9.46764 15.6935 9.87825C15.5341 11.0932 15.0468 12.2421 14.2843 13.2012C13.5218 14.1603 12.5125 14.8939 11.3649 15.3231C10.2172 15.7522 8.97419 15.8608 7.76942 15.6373C6.56463 15.4138 5.44367 14.8661 4.52626 14.0538C3.60884 13.2415 2.92964 12.1948 2.5619 11.026C2.1942 9.85711 2.15106 8.60999 2.43812 7.41878C2.72521 6.22759 3.33177 5.13725 4.19154 4.26424C5.05132 3.39123 6.13231 2.76847 7.31898 2.46321H7.31971Z" fill="white"/>
    <path d="M14.25 3C14.25 2.58579 14.5858 2.25 15 2.25C15.4142 2.25 15.75 2.58579 15.75 3V6.75C15.75 7.16421 15.4142 7.5 15 7.5H11.25C10.8358 7.5 10.5 7.16421 10.5 6.75C10.5 6.33579 10.8358 6 11.25 6H14.25V3Z" fill="white"/>
</svg>
