<svg width="18" height="18" viewBox="0 0 18 18" fill="none" xmlns="http://www.w3.org/2000/svg">
    <path d="M3.70898 7.87695C3.70898 7.87695 6.83618 7.62864 8.28745 8.7242C9.73872 9.81976 10.3567 12.8953 10.3567 12.8953C10.3567 12.8953 10.1084 9.76813 11.204 8.31686C12.2995 6.86559 15.3751 6.24758 15.3751 6.24758C15.3751 6.24758 12.2479 6.49589 10.7966 5.40033C9.34537 4.30477 8.72735 1.22921 8.72735 1.22921C8.72735 1.22921 8.97566 4.35641 7.8801 5.80767C6.78455 7.25894 3.70898 7.87695 3.70898 7.87695Z" fill="#2A2E2F"/>
    <path d="M2.625 15.4414C2.625 15.4414 4.32474 14.601 5.38499 14.8906C6.44523 15.1803 7.48159 16.7682 7.48159 16.7682C7.48159 16.7682 6.64118 15.0684 6.93082 14.0082C7.22047 12.9479 8.80835 11.9116 8.80835 11.9116C8.80835 11.9116 7.10861 12.752 6.04836 12.4623C4.98812 12.1727 3.95176 10.5848 3.95176 10.5848C3.95176 10.5848 4.79217 12.2846 4.50253 13.3448C4.21288 14.405 2.625 15.4414 2.625 15.4414Z" fill="#2A2E2F"/>
</svg>
