<svg width="48" height="48" viewBox="0 0 48 48" fill="none" xmlns="http://www.w3.org/2000/svg">
    <path d="M23.9871 2.00391C24.7482 2.00415 25.4433 2.43666 25.7801 3.11914L31.4852 14.6816L44.245 16.5312C44.9988 16.6405 45.6249 17.1681 45.8602 17.8926C46.0953 18.6168 45.8999 19.4121 45.3543 19.9434L36.1082 28.9434L38.2879 41.6523C38.4164 42.4028 38.1073 43.1621 37.4911 43.6094C36.8747 44.0564 36.0572 44.1147 35.3836 43.7598L23.9969 37.7598L12.5868 43.7598C11.913 44.1139 11.0971 44.0549 10.4813 43.6074C9.86558 43.1601 9.55602 42.4025 9.68441 41.6523L11.8641 28.9434L2.61996 19.9434C2.07427 19.4122 1.8771 18.6169 2.11215 17.8926C2.34736 17.1683 2.97374 16.6406 3.72738 16.5312L16.4852 14.6816L22.1922 3.11914C22.5291 2.43646 23.2259 2.00391 23.9871 2.00391ZM19.6082 17.3945C19.3168 17.9851 18.7521 18.3938 18.1004 18.4883L8.31527 19.9062L15.409 26.8105C15.8811 27.2701 16.0966 27.9327 15.9852 28.582L14.3114 38.332L23.0692 33.7305L23.2938 33.6289C23.8257 33.428 24.4226 33.4619 24.9325 33.7305L33.6571 38.3281L31.9871 28.582C31.8758 27.9328 32.0913 27.27 32.5633 26.8105L39.6551 19.9062L29.8719 18.4883C29.2202 18.3938 28.6555 17.9851 28.3641 17.3945L23.9852 8.52344L19.6082 17.3945Z" fill="white"/>
</svg>
