<svg width="36" height="38" viewBox="0 0 36 38" fill="none" xmlns="http://www.w3.org/2000/svg">
    <g filter="url(#filter0_d_668_444)">
        <path d="M24.6667 4.45352C26.6777 5.61466 28.3506 7.28088 29.5198 9.28725C30.6889 11.2936 31.3138 13.5705 31.3326 15.8926C31.3513 18.2147 30.7633 20.5015 29.6267 22.5264C28.4901 24.5514 26.8443 26.2445 24.8523 27.4379C22.8603 28.6314 20.5912 29.2839 18.2695 29.3309C15.9478 29.3779 13.6541 28.8177 11.6154 27.7058C9.57677 26.5939 7.86385 24.9689 6.64624 22.9915C5.42864 21.0142 4.74857 18.7531 4.67335 16.4322L4.66669 16.0002L4.67335 15.5682C4.74802 13.2655 5.41808 11.0215 6.61821 9.05484C7.81833 7.08822 9.50756 5.46612 11.5212 4.34669C13.5349 3.22727 15.8042 2.64871 18.108 2.66743C20.4118 2.68615 22.6715 3.30151 24.6667 4.45352ZM22.2667 19.0482C22.0142 18.8007 21.6737 18.6636 21.3202 18.6671C20.9666 18.6706 20.6289 18.8144 20.3814 19.0668C20.071 19.3837 19.7005 19.6355 19.2916 19.8073C18.8827 19.9792 18.4436 20.0677 18 20.0677C17.5565 20.0677 17.1174 19.9792 16.7085 19.8073C16.2996 19.6355 15.9291 19.3837 15.6187 19.0668C15.3699 18.8202 15.034 18.6814 14.6837 18.6805C14.3334 18.6795 13.9967 18.8164 13.7466 19.0617C13.4964 19.3069 13.3528 19.6408 13.3469 19.9911C13.3409 20.3413 13.473 20.6799 13.7147 20.9335C14.2733 21.5036 14.9401 21.9564 15.6759 22.2656C16.4118 22.5748 17.2019 22.734 18 22.734C18.7982 22.734 19.5883 22.5748 20.3241 22.2656C21.06 21.9564 21.7267 21.5036 22.2854 20.9335C22.5329 20.681 22.6699 20.3405 22.6664 19.987C22.6629 19.6334 22.5191 19.2957 22.2667 19.0482ZM14.0134 12.0002L13.844 12.0095C13.5066 12.0497 13.1972 12.2171 12.979 12.4777C12.7609 12.7383 12.6505 13.0724 12.6705 13.4117C12.6904 13.7509 12.8391 14.0698 13.0862 14.3031C13.3333 14.5363 13.6602 14.6665 14 14.6668L14.1694 14.6575C14.5068 14.6174 14.8162 14.4499 15.0343 14.1893C15.2525 13.9287 15.3628 13.5946 15.3429 13.2554C15.323 12.9161 15.1743 12.5973 14.9272 12.364C14.6801 12.1307 14.3532 12.0006 14.0134 12.0002ZM22.0134 12.0002L21.844 12.0095C21.5066 12.0497 21.1972 12.2171 20.979 12.4777C20.7609 12.7383 20.6505 13.0724 20.6705 13.4117C20.6904 13.7509 20.8391 14.0698 21.0862 14.3031C21.3333 14.5363 21.6602 14.6665 22 14.6668L22.1694 14.6575C22.5068 14.6174 22.8162 14.4499 23.0343 14.1893C23.2525 13.9287 23.3628 13.5946 23.3429 13.2554C23.323 12.9161 23.1743 12.5973 22.9272 12.364C22.6801 12.1307 22.3532 12.0006 22.0134 12.0002Z" fill="white"/>
    </g>
    <defs>
        <filter id="filter0_d_668_444" x="0.666687" y="2.66699" width="34.6663" height="34.6665" filterUnits="userSpaceOnUse" color-interpolation-filters="sRGB">
            <feFlood flood-opacity="0" result="BackgroundImageFix"/>
            <feColorMatrix in="SourceAlpha" type="matrix" values="0 0 0 0 0 0 0 0 0 0 0 0 0 0 0 0 0 0 127 0" result="hardAlpha"/>
            <feOffset dy="4"/>
            <feGaussianBlur stdDeviation="2"/>
            <feComposite in2="hardAlpha" operator="out"/>
            <feColorMatrix type="matrix" values="0 0 0 0 0 0 0 0 0 0 0 0 0 0 0 0 0 0 0.25 0"/>
            <feBlend mode="normal" in2="BackgroundImageFix" result="effect1_dropShadow_668_444"/>
            <feBlend mode="normal" in="SourceGraphic" in2="effect1_dropShadow_668_444" result="shape"/>
        </filter>
    </defs>
</svg>
